<svg aria-hidden="true" style="position: ; width: 0; height: 0; overflow: hidden;" version="1.1" xmlns="http://www.w3.org/2000/svg" xmlns:xlink="http://www.w3.org/1999/xlink">
<defs>
<symbol id="iconclose" viewBox="0 0 32 32">
<path d="M31.451 3.167l-3.167-3.167-12.559 12.557-12.557-12.557-3.167 3.167 12.557 12.557-12.557 12.559 3.167 3.167 12.557-12.559 12.559 12.559 3.167-3.167-12.559-12.559 12.559-12.557z"></path>
</symbol>
<symbol id="iconmenu" viewBox="0 0 48 32">
<path d="M0 5.341v-5.336h48.014v5.336h-48.014zM0 18.677h48.014v-5.334h-48.014v5.334zM0 32.015h48.014v-5.336h-48.014v5.336z"></path>
</symbol>
<symbol id="iconphoneform" viewBox="0 0 32 32">
<path d="M27.419 20.853l-4.201-0.48c-0.116-0.014-0.25-0.023-0.385-0.023-0.909 0-1.732 0.369-2.328 0.964l-3.045 3.045c-4.718-2.435-8.467-6.185-10.835-10.764l-0.065-0.139 3.063-3.056c0.596-0.596 0.964-1.419 0.964-2.328 0-0.136-0.008-0.27-0.024-0.401l0.002 0.016-0.48-4.169c-0.199-1.655-1.595-2.926-3.287-2.926-0.001 0-0.003 0-0.004 0h-2.861c-1.87-0.002-3.424 1.552-3.31 3.422 0.878 14.126 12.176 25.406 26.286 26.283 1.867 0.114 3.424-1.44 3.424-3.31v-2.862c0-0.005 0-0.010 0-0.016 0-1.681-1.266-3.067-2.897-3.256l-0.015-0.001z"></path>
</symbol>
</defs>
</svg>
